<svg xmlns="http://www.w3.org/2000/svg" xmlns:svg="http://www.w3.org/2000/svg" id="svg8" width="128" height="192" version="1.1" viewBox="0 0 33.867 50.8"><metadata id="metadata5"/><g id="layer1" transform="translate(0,-246.2)"><path style="fill:#fff;stroke-width:.07502732;fill-opacity:1" id="path4504" d="m 14.123584,295.85401 c -0.668994,-0.33637 -1.337987,-0.67273 -2.006981,-1.0091 0.145635,-5.28983 0.405361,-10.57741 0.528295,-15.86773 0.811762,-0.35677 1.623521,-0.71354 2.435279,-1.07031 -0.05392,-1.53155 -0.08613,-3.06375 -0.12937,-4.59562 -1.252626,-0.22265 -2.537913,-0.22734 -3.789795,-0.45636 -0.126334,-1.44697 -0.08519,-2.89412 0.175959,-4.31749 -2.775027,0.38273 -5.568041,0.88082 -8.355134,1.24923 -0.93129,-0.81682 -1.862928,-1.63324 -2.79400102,-2.45031 0.187018,-1.78405 0.266384,-3.61314 0.519689,-5.36946 3.25144002,-0.6101 6.60852102,-1.03129 9.90053602,-1.56884 0.63919,-0.12035 1.326208,-0.16106 1.937701,-0.32753 0.644716,-4.11591 1.289432,-8.23181 1.934147,-12.34772 4.875865,0.26853 9.790441,0.32232 14.649729,0.56836 0.838003,2.49156 1.829339,4.96905 2.571428,7.46942 -0.640413,4.24233 -1.379327,8.47709 -1.958002,12.72417 -0.04061,2.09973 -0.508699,4.17143 -0.72642,6.25954 -0.344295,0.31269 -1.544124,-0.54084 -1.341439,0.31092 0.04536,2.00912 0.153054,4.04922 0.159502,6.03901 -0.518321,0.35435 0.515461,1.15211 0.618523,1.68398 1.490897,2.74677 3.103754,5.46041 4.51856,8.22785 -1.023034,1.41547 -2.336296,2.72643 -3.470879,4.10173 -0.494065,0.52332 -1.288732,-0.46419 -1.912054,-0.59051 -0.848368,-0.4744 -1.829044,-0.81081 -2.594886,-1.3713 -1.353923,-2.44653 -2.707846,-4.89307 -4.061769,-7.33961 -0.148823,3.07308 -0.222511,6.15005 -0.342314,9.22463 -1.339037,0.66812 -2.752537,1.31508 -4.147715,1.83872 -0.808753,-0.0776 -1.558686,-0.71614 -2.318589,-1.01567 z"/></g></svg>